Coordinates
version=1
nRows=11
nColumns=36
inDegrees=yes

Units are S.I. units (second, meters, Newtons, ...)
If the header above contains a line with 'inDegrees', this indicates whether rotational values are in degrees (yes) or radians (no).

endheader
time	pelvis_tilt	pelvis_list	pelvis_rotation	pelvis_tx	pelvis_ty	pelvis_tz	hip_flexion_r	hip_adduction_r	hip_rotation_r	knee_angle_r	knee_angle_r_beta	ankle_angle_r	subtalar_angle_r	mtp_angle_r	hip_flexion_l	hip_adduction_l	hip_rotation_l	knee_angle_l	knee_angle_l_beta	ankle_angle_l	subtalar_angle_l	mtp_angle_l	lumbar_extension	lumbar_bending	lumbar_rotation	arm_flex_r	arm_add_r	arm_rot_r	elbow_flex_r	pro_sup_r	arm_flex_l	arm_add_l	arm_rot_l	elbow_flex_l	pro_sup_l
      1.43750000	    -15.50377339	     -1.76098882	      1.74287222	     -0.87738542	      1.15811712	     -0.05836333	     31.61546010	      1.10388473	     -3.92986576	     44.41957152	      0.77526778	     26.81444469	     -6.78892057	     -7.49999987	     32.70228198	     -5.57599714	     -3.20308974	     45.58420446	      0.79559445	     26.71161012	      3.30169594	     -7.49999987	    -27.34785072	      1.44280946	      1.72072818	     -0.36644630	     -9.66236367	     17.85488408	     33.88323581	     67.61523148	     -1.74820604	    -12.11195214	     22.51157565	     42.16313565	     70.25608643
      1.44166670	    -15.71095772	     -1.72080388	      1.74460752	     -0.87749976	      1.15293734	     -0.05837842	     32.46254475	      0.98647993	     -3.82157377	     45.82003716	      0.79971051	     27.46569245	     -6.78920249	     -7.49999987	     33.37509235	     -5.47385692	     -2.94461855	     46.57820980	      0.81294312	     27.37720223	      3.40779799	     -7.49999987	    -27.41585055	      1.40607455	      1.70371331	     -0.12633096	     -9.81080345	     18.24513063	     33.64864157	     68.73973802	     -1.36097841	    -12.01565614	     22.63412749	     41.64852946	     70.94093165
      1.44583330	    -15.59154854	     -1.69550431	      1.72190529	     -0.87670613	      1.15423084	     -0.05734240	     32.70717620	      0.95145701	     -3.72590180	     46.67729085	      0.81467241	     28.03780329	     -6.51101687	     -7.49999987	     33.55317917	     -5.47642558	     -2.72804488	     47.34984768	      0.82641074	     27.88161509	      3.73260849	     -7.49999987	    -28.01842369	      1.32898678	      1.74774477	      0.07304114	     -9.84824625	     18.04276524	     33.88576336	     68.25518919	     -1.07062597	    -11.88715597	     22.28252799	     41.63474907	     70.15151356
      1.45000000	    -15.60039231	     -1.71102066	      1.77882179	     -0.87576322	      1.14982856	     -0.05498009	     33.10712272	      1.01292307	     -3.71250956	     47.65206912	      0.83168550	     28.78870872	     -6.41629142	     -7.49999987	     34.00819835	     -5.60042842	     -2.52797813	     48.42751876	      0.84521965	     28.42454571	      3.73160843	     -7.49999987	    -28.36459190	      1.26095647	      1.85482177	      0.11460951	     -9.86894819	     17.93764768	     34.29904724	     67.74701390	     -0.90004691	    -11.89872523	     22.07505544	     41.76816625	     69.39215836
      1.45416670	    -15.66705877	     -1.70637844	      1.79615382	     -0.87346943	      1.14939798	     -0.05519541	     33.46730976	      1.07664727	     -3.65693458	     48.48476174	      0.84621873	     29.25406556	     -6.40450044	     -7.49999987	     34.34130414	     -5.71942860	     -2.45441036	     49.25710313	      0.85969863	     28.87121171	      3.63459309	     -7.49999987	    -28.57686228	      1.20157675	      1.88183742	      0.49421857	     -9.90625158	     18.24754923	     33.75964202	     70.02099396	     -0.24670893	    -11.76552305	     22.32281404	     40.74301792	     71.06456250
      1.45833330	    -15.55180842	     -1.69077782	      1.81587853	     -0.87134483	      1.14694237	     -0.05569010	     33.53797834	      1.06381296	     -3.58168604	     49.17499456	      0.85826556	     29.80335558	     -6.37947895	     -7.49999987	     34.43573856	     -5.79343778	     -2.33067441	     49.96126082	      0.87198850	     29.29224020	      3.55571622	     -7.49999987	    -29.10160815	      1.15280018	      1.92707306	      0.65618180	     -9.84395808	     18.01569922	     33.75745905	     69.70876950	      0.06570995	    -11.67189404	     21.96769646	     40.60755518	     70.63534694
      1.46250000	    -15.62376794	     -1.67469618	      1.75439681	     -0.87314688	      1.14501705	     -0.05420781	     34.03685419	      1.12944071	     -3.45016370	     50.03893044	      0.87334409	     30.13699300	     -6.41059246	     -7.49999987	     34.80599634	     -5.85115251	     -2.26558432	     50.72980959	      0.88540221	     29.72712216	      3.45031260	     -7.49999987	    -29.58531702	      1.03818731	      1.94010116	      1.01850530	     -9.76246270	     17.91148808	     33.74153815	     69.45538325	      0.45777778	    -11.58457075	     21.66479654	     40.38691121	     70.23402994
      1.46666670	    -15.81033793	     -1.64732435	      1.69180198	     -0.87108029	      1.13976353	     -0.05331718	     34.78833182	      1.18378709	     -3.31407358	     51.14791257	      0.89269948	     30.59785964	     -6.48728659	     -7.49999987	     35.40494799	     -5.93682715	     -2.26391033	     51.66293068	      0.90168824	     30.16113965	      3.37665533	     -7.49999987	    -29.79997518	      0.91969313	      1.95623553	      1.37873274	     -9.67916949	     18.23987634	     33.37561489	     70.61338824	      0.83891710	    -11.55469873	     21.65354870	     39.83038144	     70.87107444
      1.47083330	    -15.97163509	     -1.65406124	      1.67405811	     -0.87223855	      1.13812286	     -0.05394717	     35.55667400	      1.17939240	     -3.24895114	     52.16134991	      0.91038730	     30.99249451	     -6.42412808	     -7.49999987	     36.13278885	     -5.99184677	     -2.17620321	     52.85440720	      0.92248343	     30.50984211	      3.01527947	     -7.49999987	    -30.25525512	      0.89425691	      1.93528035	      1.71917682	     -9.62071495	     18.04881033	     33.33065343	     70.22522186	      1.16752171	    -11.44463978	     21.34621332	     39.75055257	     70.40647985
      1.47500000	    -16.09389164	     -1.58855971	      1.68415525	     -0.86990506	      1.13549639	     -0.05380740	     36.17845774	      1.11822943	     -3.14810433	     53.24055519	      0.92922298	     31.49579682	     -6.35172362	     -7.49999987	     36.76900156	     -5.96198151	     -2.05840564	     54.03479492	      0.94308508	     30.80832065	      2.81705738	     -7.49999987	    -30.55579929	      0.82628342	      1.86540255	      2.05438301	     -9.55079400	     18.00199913	     33.17596775	     69.97641707	      1.51592366	    -11.34227200	     21.10258651	     39.40644591	     70.04843088
      1.47916670	    -16.42008202	     -1.53301163	      1.63590100	     -0.87075359	      1.13043363	     -0.05259752	     37.11170987	      1.06791817	     -3.06461032	     54.47749719	      0.95081169	     32.05529823	     -6.28861834	     -7.49999987	     37.77696516	     -6.02061762	     -2.03952321	     55.36460825	      0.96629470	     31.32980027	      2.73017510	     -7.49999987	    -30.68703015	      0.69301878	      1.89830937	      2.31825824	     -9.50074489	     18.03059940	     33.15592504	     69.77815393	      1.84824130	    -11.34060012	     20.91296716	     39.28197850	     69.74714790
